<svg width="238" height="75" viewBox="0 0 238 75" fill="none" xmlns="http://www.w3.org/2000/svg">
<rect y="41.6226" width="45.9619" height="45.9619" rx="12.9085" transform="rotate(-45 0 41.6226)" fill="#212226"/>
<rect y="32.5" width="45.9619" height="45.9619" rx="12.9085" transform="rotate(-45 0 32.5)" fill="#4DABF7"/>
<rect x="9.19238" y="34.1753" width="9.19239" height="9.19239" rx="3.22712" transform="rotate(-45 9.19238 34.1753)" fill="white"/>
<rect x="17.4655" y="41.9888" width="9.19239" height="9.19239" rx="3.22712" transform="rotate(-45 17.4655 41.9888)" fill="white"/>
<rect x="25.7387" y="49.8022" width="9.19239" height="9.19239" rx="3.22712" transform="rotate(-45 25.7387 49.8022)" fill="white"/>
<rect x="19.304" y="27.6636" width="20.7831" height="4.59619" rx="1.93627" transform="rotate(-45 19.304 27.6636)" fill="white"/>
<rect x="27.5772" y="35.4771" width="20.7831" height="4.59619" rx="1.93627" transform="rotate(-45 27.5772 35.4771)" fill="white"/>
<g clip-path="url(#clip0_879_6002)">
<path d="M49.8709 37.3455L45.6338 37.3333C45.3792 37.3326 45.1722 37.1257 45.1715 36.8711L45.1688 35.9492C45.1681 35.6946 45.3739 35.4888 45.6285 35.4896L48.4828 35.4978L48.4653 29.3841C48.4646 29.1295 48.6704 28.9237 48.9249 28.9245L49.8468 28.9271C50.1013 28.9278 50.3083 29.1348 50.309 29.3894L50.3306 36.8859C50.3313 37.1405 50.1255 37.3462 49.8709 37.3455Z" fill="white"/>
</g>
<path d="M91.5881 22.92V28.4H80.1481V34.32H88.7081V39.64H80.1481V51H73.3081V22.92H91.5881ZM105.343 51.32C103.156 51.32 101.183 50.8533 99.4231 49.92C97.6898 48.9867 96.3165 47.6533 95.3031 45.92C94.3165 44.1867 93.8231 42.16 93.8231 39.84C93.8231 37.5467 94.3298 35.5333 95.3431 33.8C96.3565 32.04 97.7431 30.6933 99.5031 29.76C101.263 28.8267 103.236 28.36 105.423 28.36C107.61 28.36 109.583 28.8267 111.343 29.76C113.103 30.6933 114.49 32.04 115.503 33.8C116.516 35.5333 117.023 37.5467 117.023 39.84C117.023 42.1333 116.503 44.16 115.463 45.92C114.45 47.6533 113.05 48.9867 111.263 49.92C109.503 50.8533 107.53 51.32 105.343 51.32ZM105.343 45.4C106.65 45.4 107.756 44.92 108.663 43.96C109.596 43 110.063 41.6267 110.063 39.84C110.063 38.0533 109.61 36.68 108.703 35.72C107.823 34.76 106.73 34.28 105.423 34.28C104.09 34.28 102.983 34.76 102.103 35.72C101.223 36.6533 100.783 38.0267 100.783 39.84C100.783 41.6267 101.21 43 102.063 43.96C102.943 44.92 104.036 45.4 105.343 45.4ZM127.492 32.4C128.292 31.1733 129.292 30.2133 130.492 29.52C131.692 28.8 133.025 28.44 134.492 28.44V35.68H132.612C130.905 35.68 129.625 36.0533 128.772 36.8C127.919 37.52 127.492 38.8 127.492 40.64V51H120.652V28.68H127.492V32.4ZM166.241 28.44C169.015 28.44 171.215 29.28 172.841 30.96C174.495 32.64 175.321 34.9733 175.321 37.96V51H168.521V38.88C168.521 37.44 168.135 36.3333 167.361 35.56C166.615 34.76 165.575 34.36 164.241 34.36C162.908 34.36 161.855 34.76 161.081 35.56C160.335 36.3333 159.961 37.44 159.961 38.88V51H153.161V38.88C153.161 37.44 152.775 36.3333 152.001 35.56C151.255 34.76 150.215 34.36 148.881 34.36C147.548 34.36 146.495 34.76 145.721 35.56C144.975 36.3333 144.601 37.44 144.601 38.88V51H137.761V28.68H144.601V31.48C145.295 30.5467 146.201 29.8133 147.321 29.28C148.441 28.72 149.708 28.44 151.121 28.44C152.801 28.44 154.295 28.8 155.601 29.52C156.935 30.24 157.975 31.2667 158.721 32.6C159.495 31.3733 160.548 30.3733 161.881 29.6C163.215 28.8267 164.668 28.44 166.241 28.44ZM189.185 51.32C187.238 51.32 185.505 50.9867 183.985 50.32C182.465 49.6533 181.265 48.7467 180.385 47.6C179.505 46.4267 179.012 45.12 178.905 43.68H185.665C185.745 44.4533 186.105 45.08 186.745 45.56C187.385 46.04 188.172 46.28 189.105 46.28C189.958 46.28 190.612 46.12 191.065 45.8C191.545 45.4533 191.785 45.0133 191.785 44.48C191.785 43.84 191.452 43.3733 190.785 43.08C190.118 42.76 189.038 42.4133 187.545 42.04C185.945 41.6667 184.612 41.28 183.545 40.88C182.478 40.4533 181.558 39.8 180.785 38.92C180.012 38.0133 179.625 36.8 179.625 35.28C179.625 34 179.972 32.84 180.665 31.8C181.385 30.7333 182.425 29.8933 183.785 29.28C185.172 28.6667 186.812 28.36 188.705 28.36C191.505 28.36 193.705 29.0533 195.305 30.44C196.932 31.8267 197.865 33.6667 198.105 35.96H191.785C191.678 35.1867 191.332 34.5733 190.745 34.12C190.185 33.6667 189.438 33.44 188.505 33.44C187.705 33.44 187.092 33.6 186.665 33.92C186.238 34.2133 186.025 34.6267 186.025 35.16C186.025 35.8 186.358 36.28 187.025 36.6C187.718 36.92 188.785 37.24 190.225 37.56C191.878 37.9867 193.225 38.4133 194.265 38.84C195.305 39.24 196.212 39.9067 196.985 40.84C197.785 41.7467 198.198 42.9733 198.225 44.52C198.225 45.8267 197.852 47 197.105 48.04C196.385 49.0533 195.332 49.8533 193.945 50.44C192.585 51.0267 190.998 51.32 189.185 51.32ZM209.25 21.4V51H202.41V21.4H209.25ZM237.007 28.68L223.007 61.6H215.647L220.767 50.24L211.687 28.68H219.327L224.487 42.64L229.607 28.68H237.007Z" fill="#212226"/>
<defs>
<clipPath id="clip0_879_6002">
<rect width="11.4905" height="11.4905" fill="white" transform="translate(40.4465 33.9614) rotate(-45)"/>
</clipPath>
</defs>
</svg>
